<svg id="Layer_1" data-name="Layer 1" xmlns="http://www.w3.org/2000/svg" viewBox="0 0 756.41 878.64"><defs><style>.cls-1{fill:#fff;}.cls-2{fill:#020202;}.cls-3{fill:none;stroke:#fff;stroke-miterlimit:10;stroke-width:8px;opacity:0.5;}</style></defs><title>oneil-img</title><path class="cls-1" d="M281,915c1.83-1,7.2,2,9,1l31.44,2.77C354.65,925.43,576,905.41,610,903l171,36h.1s0-1.47-.1-4.2q0-98.13,0-196.26c0-29.43,0-59-4.08-88.12-2.4-17.15-7.79-24.59-12-41.42-.71-4.75-1.28-7.3-2-8,0-.26-2-4.74-2-5l-1-9-3-10,5-6c.11-2.93,2.89-1.07,3-4h0c-2-.71,2.6-4.56,1-3-27-63-90.72-106.33-150-129l-16-39c4-1,17.46,1.14,21.47.07,12.51-3.34,25.55-7,35-15.91,5.78-5.43,9.78-12.44,13.56-19.42,15.89-29.4,29.45-63.2,21.1-95.57-2.29-8.86-6.16-17.24-8.75-26-6.09-20.58-5-42.58-9.16-63.64-5.11-25.95-18.12-49.93-35-70.3a118.56,118.56,0,0,0-20.54-20.13C605.94,76.42,592.29,71.17,578,68.71h0c-29.55-11.8-58.13,0-58.13,0C427.13,89.91,408.5,164.2,408.5,164.2c-19.07,50.1-9.05,65.83-3.22,70.48,2.48,4.84,6,8.62,10.33,9.46l.33.37c-7.81,1.11-15.53,4.93-19.53,11.69-4.25,7.15-2.87,17.75,4.22,22.1,3.37,2.07,8.2,3.3,8.84,7.21.28,1.67-.39,3.34-.9,4.95-3.32,10.35.78,23.78,11.09,27.19,6.92,2.29,14.93-.24,21.5,2.89,0,6.8,4.44,12.73,9,17.81a168.32,168.32,0,0,0,29.67,26.23c2.54,9.95-1.13,20.45-.08,25.82l-38.26,29c-4.52,1.29-10.64,3.1-18.11,5.47-13.13,2.87-28.72,6.64-32.35,8.17-15.51,6.5-32.7,13.68-48.7,22.32q-9.44,4.11-19.3,8.68l-3.38,1.57c-1.91,2.19-5.66,6.54-10.36,12.29-.42.38-.85.75-1.26,1.14a78.73,78.73,0,0,0-14.52,19.11c-14.73,20-30.05,44.2-30.87,59.68C261,588,242.35,648.6,224.18,787.8L224,805c0,7.81,1.16,15.21,2,23,3.72,34.48,22.63,64.57,49.86,85.66l.14.34,5,1" transform="translate(-159.59 -60.36)"/><path class="cls-2" d="M410.83,239c-4-.94-6.79-4.3-8.7-7.8A38,38,0,0,1,398,218c-.64-4.93.05-9.77.83-14.64a185.26,185.26,0,0,1,3.8-18.22A160.89,160.89,0,0,1,494.41,78.34c21.65-9.46,45.84-14.44,69.47-12.1a98.11,98.11,0,0,1,33.2,9.08,77.22,77.22,0,0,1,14.86,9.28,116.32,116.32,0,0,1,14,13.79c16.33,18.55,29.26,41,35.71,64.92,3.48,12.92,4.65,26.28,5.63,39.58,1.05,14.15,2.6,27.6,7.39,41.05,2.33,6.54,4.92,13,6.54,19.77.37,1.53.69,3.07,1,4.61.13.77.25,1.54.37,2.32,0,.06.14,1,0,.33.06.49.12,1,.17,1.45a87.49,87.49,0,0,1,.48,9.57,98.43,98.43,0,0,1-.56,9.87c-.09.78-.18,1.55-.28,2.32.09-.67-.2,1.33-.23,1.49-.26,1.65-.53,3.29-.85,4.93a140.76,140.76,0,0,1-5.17,19.24,230.77,230.77,0,0,1-15.86,35.86c-2.93,5.39-6,10.8-10.15,15.29a43.94,43.94,0,0,1-13.95,9.85,96.66,96.66,0,0,1-16.63,5.57c-6.65,1.75-13.34,3.44-20.08,4.81a103,103,0,0,1-20.21,2.39,78.61,78.61,0,0,1-9.33-.51l-.22,0-1.09-.17-2.16-.39c-1.53-.31-3-.67-4.53-1.1s-2.79-.85-4.15-1.37l-1-.39c-.85-.34.64.29-.2-.08-.66-.3-1.31-.6-2-.92-1.3-.65-2.57-1.35-3.79-2.12-.62-.39-1.22-.79-1.82-1.2l-.88-.64c-.84-.61,1,.79-.39-.3-2.29-1.8-5.7-2.4-7.9,0-1.85,2-2.46,6,0,7.91,10.78,8.49,24.47,12,38.07,11.77,14.7-.26,29.05-4.39,43.07-8.46,12.27-3.55,25-7.89,34.33-17.06,4.77-4.72,8.44-10.47,11.71-16.29s6.6-11.94,9.62-18.05c12.39-25,21.21-53.21,15.15-81.27-1.5-7-4.1-13.62-6.54-20.3a132,132,0,0,1-5.94-20.53c-2.7-14.08-3.43-28.36-5.43-42.62-3.71-26.51-15-51-31.19-72.18C634.41,96.44,625.2,86.12,614,78.2a95,95,0,0,0-33.13-14.75C556.66,57.79,531,60.26,507.56,68a168.19,168.19,0,0,0-63.5,38.19A166.18,166.18,0,0,0,403,169.93a156.34,156.34,0,0,0-8.55,37.27c-.93,9.38.72,19.47,6.32,27.29,2.32,3.22,5.43,6.07,9.45,6.83,1.54.29,2.21-2,.65-2.37Z" transform="translate(-159.59 -60.36)"/><path class="cls-2" d="M520,219.24a30.65,30.65,0,0,1,2.8-1.42,19.44,19.44,0,0,0,2.61-1.83c1.64-1.17,3.22-2.42,4.9-3.55A68.39,68.39,0,0,1,541,206.56c3.62-1.62,7.57-2.41,11.4-3.35,4.13-1,7.74-1.75,11.9-1.19,2.52.33,4.37-2.54,4.08-4.7a4.13,4.13,0,0,0-5.18-3.45c-4.13,1.22-8.4,1.83-12.52,3.08a72.89,72.89,0,0,0-11.93,5.36,70.81,70.81,0,0,0-10.77,6.85,40.66,40.66,0,0,0-5,4.3,11.76,11.76,0,0,0-2.06,2.45c-.48.94-.9,1.88-1.42,2.8a.39.39,0,0,0,.53.53Z" transform="translate(-159.59 -60.36)"/><path class="cls-2" d="M661.44,209.57c-.69-.93-1.46-1.83-2.1-2.79-.32-.48-.52-1-.86-1.45a10.56,10.56,0,0,0-1.3-1.29c-.91-.81-1.84-1.6-2.79-2.36a33.93,33.93,0,0,1-2.55-2.54c-3.68-3.57-8.56-5.95-13.43-7.94l3.34,4.39v-.26a5.59,5.59,0,0,0-3.9-5.12,49.52,49.52,0,0,0-6-2c-.46-.12-.92-.25-1.39-.33-.63-.16-.54-.11.28.14a6.41,6.41,0,0,0-1.82-.7,16,16,0,0,0-4.43-.69,6.07,6.07,0,0,0-1.61,11.9,20.52,20.52,0,0,0,4.45.54,2.53,2.53,0,0,0,1.19-.07c1.42-.15,1-.19-1.1-.12a12.76,12.76,0,0,0,1.62.28c2,.38,4,.78,6,1.29a5.29,5.29,0,0,0,5.16-1.37l.24-.28L636,200c4.35,1.22,8.5,3,12.79,4.41a14.47,14.47,0,0,1,2.74,1q1.5.88,2.94,1.83a14.52,14.52,0,0,0,2.88,1.48,17.08,17.08,0,0,1,3.08,1.89c.59.4,1.45-.42,1-1Z" transform="translate(-159.59 -60.36)"/><path class="cls-2" d="M542.42,226.93a24.26,24.26,0,0,0-.74,4.95l-.37,3.59-.35,3.44-.18,1.71a7.45,7.45,0,0,0,2.17,5.85,6.6,6.6,0,0,0,4,1.9,6.33,6.33,0,0,0,4.42-.82,9,9,0,0,0,2.72-2.68,8.88,8.88,0,0,0,1-3.93c0-.52.09-1,.14-1.56l.3-3.6.29-3.43a16.6,16.6,0,0,0,.12-3.59,7.63,7.63,0,0,0-2-4.86A7.06,7.06,0,0,0,550,222a6.94,6.94,0,0,0-7.55,4.93Z" transform="translate(-159.59 -60.36)"/><path class="cls-2" d="M636.18,230.87a11,11,0,0,0-.32,4,32.27,32.27,0,0,0,.51,3.9A18,18,0,0,0,637,241c.12.35.26.7.4,1a7.71,7.71,0,0,0,1.86,3.18,5.92,5.92,0,0,0,3.1,1.72l1.68.23a4.71,4.71,0,0,0,2.42-.55,3.16,3.16,0,0,0,1.39-.81,4.81,4.81,0,0,0,1.62-1.76,6.47,6.47,0,0,0,.43-.94,3.21,3.21,0,0,0,.45-1.66,5,5,0,0,0-.12-2.61,18.79,18.79,0,0,0-.89-2.18l.67,1.57a18,18,0,0,1-1.24-4.5l.24,1.74c-.07-.51-.11-1-.14-1.53a17.79,17.79,0,0,0-.33-3.07l-.64-1.53a4.77,4.77,0,0,0-1.65-1.8,3.24,3.24,0,0,0-1.41-.82,4.77,4.77,0,0,0-2.47-.55,7.63,7.63,0,0,0-3.23.87,6.6,6.6,0,0,0-2.94,3.83Z" transform="translate(-159.59 -60.36)"/><path class="cls-2" d="M614.16,262.26c.31.68,3.71,1.33,4.71,1.86a10.09,10.09,0,0,1,2.69,2,13.79,13.79,0,0,1,3,5.28,23.22,23.22,0,0,1,1,7.86c-.09,2.12-.25,4.65-1.24,6.3-.55.92.13-.06-.27.4-.07.08-.65.62-.28.32a4.78,4.78,0,0,1-1.26.72c.45-.18-.28.07-.39.11q-.45.14-.9.24c-.62.14-1.24.25-1.87.33l-.19,0-.93.11c-.78.08-1.55.16-2.33.21a22.56,22.56,0,0,1-4.19,0c-4.5-.54-8.26-3.19-11.54-6.16q-1.26-1.16-2.46-2.37c-1-1-2-2.43-3.22-3.14a3.58,3.58,0,0,0-4.79,1.13,3.86,3.86,0,0,0-.37,2.84,6.37,6.37,0,0,0,1.87,2.56c3.48,3.62,7.26,7.22,11.77,9.53,5.24,2.67,10.63,2.94,16.37,2.23,2.62-.32,5.35-.69,7.62-2.15a11.13,11.13,0,0,0,4.72-7c1.39-6,.85-13.32-2.48-18.63a18.87,18.87,0,0,0-5.94-5.89c-2.09-1.35-5.23-2.72-7.75-2a2.27,2.27,0,0,0-1.57,2.78l.22.52Z" transform="translate(-159.59 -60.36)"/><path class="cls-2" d="M435.86,239.44c-6.51-1.56-13-3.05-19.75-3.08a38.19,38.19,0,0,0-16.31,3.45c-9.25,4.28-15.92,13.56-14.58,24a18.83,18.83,0,0,0,7.29,13.1A45.29,45.29,0,0,0,398,280c.42.23.84.47,1.24.73,0,0,.85.6.37.23s.27.26.3.28.27.28.41.42c.67.67-.44-.65.07.14.15.23.15.56,0-.14,0,.09.22,1,.15.3.13,1.16-.51,2.43-.92,3.78a24,24,0,0,0-.72,3.13,29.88,29.88,0,0,0-.36,7.19,27.35,27.35,0,0,0,4.29,13A20.42,20.42,0,0,0,416,318a61.17,61.17,0,0,0,10.12.66c1.38,0,3.28.09,4.31.23a6.1,6.1,0,0,0,.71.12c.4.08.8.17,1.2.28s.53.14.8.22l.78.27c-.29-.14-.21-.11.22.1l-1.93-3.36c.13,9.54,6.75,17.06,12.93,23.65a173.37,173.37,0,0,0,20.4,18.47c2.11,1.62,4.24,3.21,6.42,4.74,1.08.76,2.17,1.5,3.26,2.23a15.8,15.8,0,0,0,4,1.81c3.35,1.1,5.47-3.3,3.29-5.64a16.32,16.32,0,0,0-2.63-2.42c-1-.66-1.95-1.3-2.92-2-1.75-1.2-3.48-2.45-5.18-3.72-3.14-2.35-6.45-5.05-9.62-7.84s-6.5-6-9.56-9.1q-2.22-2.29-4.36-4.66c-.65-.73-1.29-1.46-1.92-2.2s-1.33-1.6-1.72-2.14a30.92,30.92,0,0,1-3.47-5.8c.07.16.2.56-.07-.18-.1-.25-.19-.5-.28-.76q-.25-.75-.45-1.53c-.06-.26-.12-.52-.17-.78,0-.09-.17-1.07-.12-.67s0-.27,0-.28c0-.4,0-.81-.05-1.21a3.82,3.82,0,0,0-1.92-3.36c-5.34-2.45-10.91-2.14-16.63-2.36a17.75,17.75,0,0,1-6.7-1.24c.79.31.12.05-.07-.05l-.69-.36c-.36-.2-.71-.41-1.05-.64s-.41-.31-.63-.43c-.51-.3.65.59-.06-.06-.38-.34-.76-.67-1.12-1s-.63-.68-.93-1c-.08-.09-.5-.61-.18-.21s-.24-.34-.25-.35a21.17,21.17,0,0,1-1.52-2.55c-.1-.21-.64-1.5-.32-.66-.17-.45-.35-.89-.5-1.34a23.49,23.49,0,0,1-.79-3l-.15-.8c0-.21-.13-.95,0-.09-.06-.43-.1-.86-.13-1.29a25.33,25.33,0,0,1,0-3.26c0-.48.11-1,.12-1.45s-.14.63,0,.07c.06-.27.08-.54.13-.8a23.89,23.89,0,0,1,.78-3c1-3.07,1.56-6.16,0-9.14a12.41,12.41,0,0,0-5.16-4.76c-.87-.48-1.76-.9-2.64-1.35s-1.75-1.1-2.65-1.52c-.5-.24.6.56-.1-.08l-.47-.42c-.34-.32-.65-.67-1-1-.15-.16-.53-.74-.08-.08-.12-.17-.24-.34-.35-.52a13,13,0,0,1-.79-1.36c-.12-.23-.22-.48-.34-.71-.28-.53.26.85,0-.1-.13-.41-.28-.81-.39-1.22s-.24-1-.36-1.57c0-.17-.12-.76,0,.07,0-.32-.07-.64-.09-1a19.11,19.11,0,0,1,0-2.93c0-.22,0-.43.07-.65-.1.82,0,.23,0,.06.13-.59.23-1.17.4-1.75s.29-.93.45-1.4c.24-.68,0-.11,0,0,.11-.24.22-.49.35-.73a16.65,16.65,0,0,1,1.77-2.84c-.4.52.1-.1.21-.22s.4-.46.61-.68.68-.7,1-1,.91-.82,1.39-1.2c-.13.11-.52.37.1-.06.3-.21.6-.43.91-.63a28.65,28.65,0,0,1,3.24-1.83l.85-.39q.38-.16-.06,0l.52-.21c.65-.24,1.3-.47,2-.67a32.44,32.44,0,0,1,3.65-.91c.67-.13,1.35-.26,2-.35l.19,0c-.44.06-.37.06.21,0s1-.1,1.46-.13c6.65-.48,13.44.51,20,1.7a3.32,3.32,0,0,0,4-2.26,3.26,3.26,0,0,0-2.26-4Z" transform="translate(-159.59 -60.36)"/><path class="cls-2" d="M413.41,263.1c-.41.29-1.11.22-.49.55a2.22,2.22,0,0,0,.85.12,14.53,14.53,0,0,0,1.62.07c1.18,0,2.37,0,3.55.11a38.15,38.15,0,0,1,7,1.23,41.13,41.13,0,0,1,6.49,2.24c1.07.49,2.13,1,3.16,1.61.8.45,1.95.92,2.37,1.72a3.39,3.39,0,0,0,3,1.7,3.85,3.85,0,0,0,3-1.18,3.55,3.55,0,0,0,.28-3.16,3.6,3.6,0,0,0-3.3-2.51c.69.26.61.21-.26-.14l-.37-.15c-.34-.17-.67-.37-1-.54-.75-.39-1.5-.75-2.27-1.08a45.53,45.53,0,0,0-5.14-1.94A41.07,41.07,0,0,0,421.66,260a39.67,39.67,0,0,0-5.23.1c-1.36.11-3.55.11-4.37,1.43-.44.69-.42,2,.51,2.24.47.13,1.08,0,1-.6a.11.11,0,0,0-.16-.07Z" transform="translate(-159.59 -60.36)"/><path class="cls-2" d="M476.09,357.29a4.18,4.18,0,0,0-.54,2.59,23.93,23.93,0,0,0,.54,2.78c.47,1.81.94,3.62,1.35,5.44a21.1,21.1,0,0,1,.6,4.8,18.08,18.08,0,0,1-.48,4.81c-.17.8-.38,1.59-.61,2.37-.12.39-.3.78-.39,1.18s0,0,.08-.11c-.12.31-.28.62-.42.92l-.28.54c.06-.12-.77,1.71-.4.95.24-.49-.07.12-.1.18s-.17.37-.27.56c-.42.86-.88,1.72-1.37,2.55a54,54,0,0,1-3,4.52c-.11.16-.85,1.18-.47.66s-.38.48-.51.63c-.63.77-1.28,1.53-2,2.27a69.65,69.65,0,0,1-8.31,7.51l-4.43,3.5-1.2.93.4-.31-.51.39-2.46,1.89a95.56,95.56,0,0,1-9.66,6.7c-.78.45-1.57.89-2.38,1.3s-1.93.8-2.79,1.32c0,0,1.25-.51.57-.24l-.61.25-1.23.47c-1,.36-1.93.69-2.91,1a98.93,98.93,0,0,1-12.5,2.9c-1.09.2-2.19.37-3.29.54l-1.55.23-.88.12c-.92.13.14,0,.47-.06l-3.09.4c-2.76.36-5.46,1.36-6.89,4a6.14,6.14,0,0,0,.93,7.2c2.38,2.61,5.7,2.39,8.83,2,2.45-.31,4.89-.63,7.33-1a84.68,84.68,0,0,0,11.9-2.59,64.18,64.18,0,0,0,12.14-5.06,79.73,79.73,0,0,0,11.14-7.83,133.41,133.41,0,0,0,17.3-15.87,48.44,48.44,0,0,0,7.38-10.28,42.67,42.67,0,0,0,2.45-6,35.31,35.31,0,0,0,1.15-5.86,30.09,30.09,0,0,0-1-13.17,26.83,26.83,0,0,0-3-6.18,21.24,21.24,0,0,1-1.5-2.73,13.55,13.55,0,0,0-1.43-3,1.27,1.27,0,0,0-2.18,0Z" transform="translate(-159.59 -60.36)"/><path class="cls-2" d="M604.69,393.4l0,0a2.25,2.25,0,0,0-2.21-.58c-6.06,1.53-5.84,9.51-4.68,14.35a110.18,110.18,0,0,0,4.86,15.27c4,9.9,9.13,19.26,16.38,27.15a63.06,63.06,0,0,0,14.35,11.58,4.22,4.22,0,0,0,4.26-7.28c-1.08-.69-2.14-1.4-3.17-2.14-.51-.37-1-.74-1.52-1.12l-.59-.46c-.39-.29-.4-.3,0,0l-.44-.34a62.85,62.85,0,0,1-5.56-5,69.19,69.19,0,0,1-4.75-5.38c-.73-.9.32.44-.1-.13l-.54-.71c-.36-.48-.71-1-1.05-1.46-.69-1-1.35-2-2-3A93,93,0,0,1,611,420.88c.07.16.31.74,0,0l-.36-.86-.69-1.73c-.47-1.23-.92-2.47-1.39-3.7q-1.37-3.57-2.56-7.2a39.23,39.23,0,0,1-1.16-3.93c-.14-.62-.22-1.24-.33-1.85-.06-.33-.16-.65-.22-1,.11.62,0-.14,0-.37s0-.44,0-.66c0-.42,0-.43,0,0,0-.15.06-.31.09-.46s.15-.5.21-.74.31-1.71.14-.9c.3-1.42.91-2.78-.11-4.05Z" transform="translate(-159.59 -60.36)"/><path class="cls-2" d="M408.92,438.05a4.46,4.46,0,1,0-4.47-4.46,4.51,4.51,0,0,0,4.47,4.46Z" transform="translate(-159.59 -60.36)"/><path class="cls-2" d="M635.41,459.6c-1.51,11.72-2.69,23.5-6.26,34.84a86.16,86.16,0,0,1-6.29,14.93,74.59,74.59,0,0,1-8.15,12.28c-6.48,7.79-14.51,14.26-24,18-10.85,4.2-22.63,5.71-34.17,6.48-21.53,1.43-44-.8-63.2-10.87-10.29-5.39-18.87-12.89-27.16-21-7.74-7.53-15.39-15.2-22.61-23.22q-2.65-2.94-5.21-6-1.24-1.47-2.46-3l-1.26-1.58-.5-.63-.3-.39A136,136,0,0,1,425,466.67c-1.34-2.25-2.59-4.56-3.74-6.9-.51-1-1-2.11-1.48-3.18-.16-.36-.31-.72-.47-1.07.07.15.38.91,0,.07-.27-.65-.53-1.31-.79-2a78.16,78.16,0,0,1-4.07-14.7l-.27-1.74c-.12-.8.14,1.26,0,0l-.09-.78c-.15-1.31-.24-2.62-.31-3.93-.13-2.64-2.23-5.19-5.06-5.07-2.6.12-5.24,2.24-5.07,5.07A78.27,78.27,0,0,0,413,464.18,140.9,140.9,0,0,0,432.07,491c7.25,8.24,15.14,15.89,23.07,23.47,8.78,8.38,17.77,16.75,28.16,23.11,19.79,12.11,43.5,15.91,66.4,15.17,11.94-.38,24.22-1.61,35.75-4.88a70.31,70.31,0,0,0,29.39-16.46c17.09-16.21,25.45-40,25.42-63.21a67,67,0,0,0-.71-9.17,2.1,2.1,0,0,0-2.32-1.52,2.15,2.15,0,0,0-1.82,2.08Z" transform="translate(-159.59 -60.36)"/><path class="cls-2" d="M580,321.89a.15.15,0,1,0,0-.3.15.15,0,0,0,0,.3Z" transform="translate(-159.59 -60.36)"/><path class="cls-2" d="M585.86,335.88a12.74,12.74,0,0,0,4.81,4.05,27.36,27.36,0,0,0,5.8,2,24.55,24.55,0,0,0,13-.81,38,38,0,0,0,12-6.85,37,37,0,0,0,4.32-4.26c.71-.81,1.39-1.65,2.06-2.5,1-1.32,2.34-2.69,2.69-4.39a5.38,5.38,0,0,0-1.89-5.55,5.28,5.28,0,0,0-5.87-.41,11.37,11.37,0,0,0-3.19,3.47,15.57,15.57,0,0,1-1,1.3c.59-.66.19-.24-.16.19-1.19,1.47-2.47,2.85-3.8,4.2-.66.67-1.33,1.32-2,1.94-.3.27-.6.53-.91.78l-.62.5c.49-.37.5-.39.05-.05a34.25,34.25,0,0,1-4.61,2.79c-.21.1-1.49.61-.47.22l-1.09.41a23.31,23.31,0,0,1-2.6.73c-.5.12-1,.21-1.51.3l-.38,0-.76.1c-.13,0-1.4.2-.95.15s-.84.06-1,.07a21.14,21.14,0,0,1-2.64,0,8.35,8.35,0,0,1-2-.38c-.84-.22-1.65-.55-2.49-.78a17.86,17.86,0,0,1-2.24-.65,2.15,2.15,0,0,0-2.6,3.36Z" transform="translate(-159.59 -60.36)"/><path class="cls-2" d="M408.57,430.13a3.85,3.85,0,0,0-1.08-1.54,6.78,6.78,0,0,0-2.08-.63,17.67,17.67,0,0,0-5,.06,50.83,50.83,0,0,0-10,2.26c-6,1.93-12,4.24-17.84,6.65A327.4,327.4,0,0,0,338,453a171.3,171.3,0,0,0-30.84,21.42,145.67,145.67,0,0,0-24.28,28.33,189.64,189.64,0,0,0-10.54,17.94q-2.34,4.53-4.49,9.17c-.71,1.55-1.41,3.09-2.09,4.66a11.52,11.52,0,0,0-1.16,3.45,5.59,5.59,0,0,0,.93,3.11,2.31,2.31,0,0,0,2.58,1.05,6.68,6.68,0,0,0,2.23-1,5.87,5.87,0,0,0,1.74-2.48c.65-1.42,1.27-2.85,1.93-4.26,1.25-2.7,2.54-5.38,3.9-8q4.1-8.05,8.91-15.71A145.19,145.19,0,0,1,309.12,483c17.24-16.59,39.19-27.76,61-37.78,6.28-2.88,12.55-5.72,18.79-8.67a58.62,58.62,0,0,1,10.21-4,29.64,29.64,0,0,1,5.29-.87,17,17,0,0,0,2.47-.33c.74-.16,1.1-.72,1.64-1.21a.06.06,0,0,0,0,0Z" transform="translate(-159.59 -60.36)"/><path class="cls-2" d="M266.86,537.26c.39,1.8,2,2.73,3.31,3.91s3.05,2.38,4.59,3.55q4.59,3.46,9,7.12,8.94,7.32,17.35,15.26a336.1,336.1,0,0,1,31.36,34q3.94,4.93,7.7,10c2.63,3.57,5,7.24,7.49,10.93a2.87,2.87,0,0,0,3.85,1,2.83,2.83,0,0,0,1-3.84c-2.27-3.21-4.69-6.33-7-9.48s-4.84-6.37-7.35-9.49q-7.31-9.09-15.25-17.65a318.84,318.84,0,0,0-34.36-31.88q-5.21-4.17-10.57-8.14c-1.71-1.26-3.41-2.63-5.22-3.73-1-.59-2-1.13-3-1.68a3.58,3.58,0,0,0-2.59-.5.5.5,0,0,0-.35.61Z" transform="translate(-159.59 -60.36)"/><path class="cls-2" d="M350.16,620.32c-.78.51-1.23.77-1.46,1.72-.3,1.25-.55,2.51-.83,3.76-.52,2.35-1.09,4.7-1.59,7.05-1,4.73-1.85,9.49-2.83,14.22-1.94,9.47-4.17,18.88-6.26,28.32q-6.26,28.22-14.09,56.07-4.43,15.72-9.35,31.3a3.34,3.34,0,0,0,6.44,1.78q8.43-27.79,15.27-56c4.56-18.84,8.65-37.77,11.72-56.91.87-5.43,1.77-10.85,2.6-16.28.4-2.63.65-5.28.93-7.92.15-1.35.29-2.71.43-4.06a5,5,0,0,0,.1-1.77,3.85,3.85,0,0,0-.87-1.22.17.17,0,0,0-.21,0Z" transform="translate(-159.59 -60.36)"/><path class="cls-2" d="M769.06,563.07c-2.21-6.47-5.58-12.41-9.06-18.29s-7.26-11.51-11.28-17a262.31,262.31,0,0,0-26.9-31.25,273.69,273.69,0,0,0-31.93-26.93A289.81,289.81,0,0,0,617,431.18q-2.35-.84-4.72-1.63a3.06,3.06,0,0,0-1.62,5.9,276.14,276.14,0,0,1,36.83,15.44,288.21,288.21,0,0,1,35,20.93,276.46,276.46,0,0,1,31.22,25.37A272,272,0,0,1,741.21,527c8.24,10.49,15.32,21.73,22.13,33.18.85,1.43,1.83,2.77,2.76,4.15s3.59.59,3-1.25Z" transform="translate(-159.59 -60.36)"/><path class="cls-2" d="M767.34,562.71c-5.23,3.55-9.09,8.61-12.93,13.56s-7.65,10.06-11.18,15.27A227.82,227.82,0,0,0,725,624.73q-4.51,9.91-8.24,20.16a3.47,3.47,0,0,0,2.4,4.24,3.51,3.51,0,0,0,4.24-2.4,265.19,265.19,0,0,1,14.44-33.88q4.2-8.25,9-16.21c3.22-5.35,6.37-10.72,9.89-15.88,3.89-5.71,8.45-11.09,11.35-17.38.19-.4-.22-1-.67-.67Z" transform="translate(-159.59 -60.36)"/><path class="cls-2" d="M723.29,637.06a13.86,13.86,0,0,0-1.21,2.74,23.33,23.33,0,0,0-.1,3.55q-.11,3.58-.28,7.19c-.23,4.81-.59,9.61-1,14.4-.84,9.62-1.86,19.22-2.53,28.86-1.34,19.28-2.08,38.63-2.71,57.94-.62,18.86-.77,37.76-.56,56.63a448.22,448.22,0,0,0,3.21,53.07c2.3,17.6,6,35.08,12.43,51.67.86,2.21,1.77,4.41,2.7,6.59.76,1.78,3.32,2.31,4.92,1.61s3.05-2.81,2.28-4.64a212,212,0,0,1-13.59-50.51c-2.52-17-3.39-34.77-3.65-52.16-.28-18.62.14-37.23.36-55.84q.35-28.71,1.49-57.4c.39-9.63.79-19.27.92-28.9s.36-19-.29-28.51a26.14,26.14,0,0,0-.28-3.55,10.74,10.74,0,0,0-1.44-2.74.39.39,0,0,0-.67,0Z" transform="translate(-159.59 -60.36)"/><path class="cls-2" d="M275.5,913.65a29.13,29.13,0,0,1,5.33,1.21q2.69.66,5.38,1.24a60.75,60.75,0,0,1,9.53,3.23c3.21,1.29,6.83,1.59,10.26,2.1s6.71.93,10.08,1.29a404.78,404.78,0,0,0,43.21,2c30-.07,59.91-2.89,89.72-6.08,30.33-3.24,60.6-7,91-9.43,28.61-2.32,57.48-3.5,86.12-1,33.39,3,65.61,13.42,99,16.06q6.35.51,12.71.58c5.07.06,5.08-7.88,0-7.88-34.34,0-67.52-10.32-101.4-14.46-28.23-3.46-56.84-2.85-85.16-.89-30.08,2.09-60,5.89-90,9.38s-60,6.69-90.17,7.93c-14.43.6-28.9.67-43.34-.1-7-.38-14-1-20.93-1.71-3.24-.35-6.78-1.27-10-1a40.85,40.85,0,0,1-11-.42c-3.26-.63-7.36-.93-10.36-2.4-.23-.11-.32.27-.08.28Z" transform="translate(-159.59 -60.36)"/><path class="cls-2" d="M755.32,577.07c2.13,11.49,5.17,22.79,7.62,34.21,2.4,11.18,4.55,22.43,6.13,33.76,3.19,23.07,3.72,46.45,3.78,69.71.12,46.93,0,93.86,0,140.78L773,935c0,3.76,5.83,3.76,5.84,0L779,792.53c0-23.57.16-47.14,0-70.71-.16-23.31-.74-46.65-3.75-69.8a383.06,383.06,0,0,0-7-37.86c-3-12.7-6.08-25.47-10.18-37.86a1.44,1.44,0,0,0-2.78.77Z" transform="translate(-159.59 -60.36)"/><path class="cls-2" d="M257.75,808.08a13.26,13.26,0,0,0,2.78-.89,24.65,24.65,0,0,0,2.65-2.15q2.64-2.14,5.31-4.24,5.25-4.11,10.6-8.09,10.79-8,21.78-15.71c14.66-10.21,29.65-19.93,44.69-29.56q22.94-14.67,45.9-29.32c14.66-9.36,29.22-18.89,43.81-28.38l45.21-29.39c1.95-1.27,3.86-2.55,5.72-3.94a3.46,3.46,0,0,0,1.21-4.61,3.41,3.41,0,0,0-4.61-1.21c-4.14,2.33-8.05,5-12,7.64l-11.39,7.45L437.1,680.27c-14.54,9.51-29.14,19-43.61,28.58L348,739.13c-14.94,10-29.87,20-44.48,30.4s-28.68,21.31-42.12,33.08c-.82.71-1.69,1.39-2.46,2.16a9.78,9.78,0,0,0-1.55,2.84.32.32,0,0,0,.35.47Z" transform="translate(-159.59 -60.36)"/><path class="cls-2" d="M277.26,915.12c8.74-3.9,17-9.09,25.05-14.29s15.92-10.93,23.52-16.9c15.23-11.95,29.51-25,43.52-38.33,14.84-14.1,29.5-28.38,44.55-42.26,14.88-13.74,30-27.26,45-40.86,15.33-13.89,30.59-27.86,45.55-42.15l2.68-2.56a21,21,0,0,1,3.11-2.36,3.37,3.37,0,1,0-4.61-4.61,19.53,19.53,0,0,1-2.3,2.82l-3,2.91-5.84,5.57q-5.65,5.39-11.37,10.71-11.24,10.49-22.59,20.82c-14.8,13.52-29.71,26.94-44.45,40.53-15.17,14-30,28.27-44.88,42.59-13.81,13.31-27.82,26.45-42.5,38.82s-30.09,24-46.61,33.73c-2,1.2-4,2.39-6,3.63a1.27,1.27,0,0,0,1.28,2.19Z" transform="translate(-159.59 -60.36)"/><path class="cls-2" d="M276.6,912.4a124.31,124.31,0,0,1-38-50.63c-8.89-22-12.07-45.52-11.59-69.19.57-27.72,5.61-55.07,10.65-82.26q7.65-41.19,15.29-82.4c5.12-27.6,10.09-55.22,15.09-82.84.63-3.49,1.2-7,1.66-10.47.41-3.16-4.79-3.78-5.52-.74-3.31,13.79-5.44,27.93-8.05,41.86s-5.24,28-7.8,41.94l-15.36,84c-5.06,27.63-10.52,55.4-11.66,83.54-1,24.46,1.4,49.24,9.92,72.31,7.52,20.38,19.62,39.35,37.16,52.46a63.22,63.22,0,0,0,6.73,4.4c1.17.67,2.62-1,1.49-1.93Z" transform="translate(-159.59 -60.36)"/><path class="cls-2" d="M486.34,650c.94-1.26,1.86-2.55,2.84-3.78a48.15,48.15,0,0,0,2.84-4.33q2.63-4.17,5.26-8.33,5.3-8.34,10.81-16.51c7.27-10.77,14.87-21.34,22.62-31.77q6.57-8.87,13.43-17.52l-3.07-.81c3.58,13.28-5.41,25.77-7.94,38.39-1.1,5.49-1.46,11.43.38,16.8A19.68,19.68,0,0,0,544.65,634c5.23,2.17,11.11,2.34,16.67,1.74a130.91,130.91,0,0,0,19.1-3.89c13.5-3.51,26.72-8,40.22-11.5,14.91-3.87,30.29-6.39,45.71-4.57a2.29,2.29,0,0,0,2.28-2.28,2.34,2.34,0,0,0-2.28-2.29c-27.3-3.09-53.61,7-79.39,14.43-6.53,1.88-13.1,3.62-19.76,5-5.32,1.07-11,1.81-16.37.86-5.13-.9-9.77-3.42-12.35-8.09s-2.63-10.15-1.86-15.17c2.16-14.17,12.1-27.48,8-42.27-.34-1.21-2.2-1.94-3.08-.81-8.09,10.34-16,20.85-23.4,31.72s-14.54,22.07-21.35,33.4c-1.89,3.15-3.76,6.31-5.58,9.51-.92,1.62-2,3.23-2.76,4.91s-1.49,3.49-2.23,5.22a.07.07,0,0,0,.12.08Z" transform="translate(-159.59 -60.36)"/><path class="cls-2" d="M507.1,716.27c1.17.58,2.1,1.5,3.48,1.49,1.54,0,3.05-.1,4.59,0,3,.16,6,.29,9,.43a139.54,139.54,0,0,0,15-.1,146.91,146.91,0,0,0,30.26-4.94,156.23,156.23,0,0,0,54.21-27.32c9-7,17.55-15,24.28-24.25a3.2,3.2,0,0,0-5-3.87c-6.61,7.51-13.32,14.74-21.06,21.11A147.38,147.38,0,0,1,597.33,695a150.28,150.28,0,0,1-55.64,16.72,142.36,142.36,0,0,1-16.78.57,81.63,81.63,0,0,0-9.51-.17,32.08,32.08,0,0,0-5.25.75c-1.63.42-2.33,1.67-3.14,3a.25.25,0,0,0,.09.34Z" transform="translate(-159.59 -60.36)"/><path class="cls-2" d="M573.35,665.35c17.43-.15,33.3-9.08,47.71-18,7.49-4.64,14.83-9.52,22.5-13.84a184.85,184.85,0,0,1,26.31-12.25,150.34,150.34,0,0,1,15.2-4.91c5-1.31,10.31-2,15.29-.05l-1.3-3.2c-9.62,12.85-23,22-36.52,30.3q-22.66,13.93-46.19,26.47c-8.92,4.73-17.86,9.42-26.91,13.87a2.35,2.35,0,0,0-.84,3.18,2.37,2.37,0,0,0,3.18.83q24.57-11.7,48.13-25.3c14.86-8.58,29.73-17.54,43.37-28a102.44,102.44,0,0,0,19.54-19.15c.94-1.24-.16-2.74-1.3-3.2-9-3.61-19.41.26-28.07,3.21a191.83,191.83,0,0,0-26.69,11.39c-15.89,8.25-30,19.51-46.11,27.4a74.64,74.64,0,0,1-27.3,7.82c-2.18.16-2.24,3.46,0,3.44Z" transform="translate(-159.59 -60.36)"/><path class="cls-2" d="M718.25,860.59a41.44,41.44,0,0,0-12.39-7.73,85.63,85.63,0,0,0-15-4.35c-10.83-2.26-21.92-3.46-32.9-4.73-24.35-2.83-48.94-4.72-73.45-5.1-12.3-.19-24.62.08-36.89,1s-24.26,2.55-36.34,4.19q-36.51,4.95-73.26,7.44c-24.42,1.65-48.88,2.63-73.34,3.58-3.11.12-6.2.28-9.3.58-2.7.26-2.81,4.22,0,4.29,6.08.15,12.17-.19,18.25-.4s12.17-.43,18.25-.68c12.17-.5,24.33-1.07,36.49-1.78,24.17-1.41,48.32-3.38,72.33-6.51,12-1.56,23.91-3.34,35.91-4.62s24.26-1.93,36.43-2c24.42-.23,48.81,1.58,73.11,3.85,11.51,1.08,23.09,1.69,34.58,2.93,10.46,1.13,20.59,3.21,30.25,7.46,2.32,1,4.66,1.91,6.9,3.07.28.14.59-.21.35-.44Z" transform="translate(-159.59 -60.36)"/><path class="cls-2" d="M716.9,792.92c-9.66-1.32-19.5-1.4-29.23-2-10-.58-20-1.13-29.95-1.54-19.67-.81-39.34-1.63-59-2.34-19.34-.7-38.69-1.23-58.05-1.23s-38.6.53-57.85,2a493.34,493.34,0,0,0-57.17,7.55c-2.36.46-4.71,1-7.05,1.45s-1.38,4.16,1,3.66c37.59-8,76.07-10.52,114.43-10.75,38.77-.23,77.54,1.73,116.28,3.09,11.07.39,22.14.74,33.21.94s22.19,1,33.21.36c.66,0,.91-1.14.17-1.24Z" transform="translate(-159.59 -60.36)"/><path class="cls-2" d="M718.52,721.29c-1.8-.06-3.61-.22-5.41-.25a58.34,58.34,0,0,0-5.9.34c-3.61.29-7.21.62-10.82,1-7.38.71-14.77,1.33-22.18,1.77-14.64.89-29.27,1.67-43.93,2.2-29.59,1.07-59.19,1.81-88.78,2.81l-50.09,1.71c-2.48.08-2.49,3.94,0,3.87q44.61-1.25,89.22-2.57c14.9-.46,29.81-.89,44.72-1.38,14.65-.49,29.33-1.08,43.93-2.39q12.33-1.1,24.65-2.38c4.16-.43,8.32-.88,12.47-1.47,2-.29,4.1-.47,6.08-.93s4.07-1.2,6.11-1.79a.26.26,0,0,0-.07-.51Z" transform="translate(-159.59 -60.36)"/><path class="cls-2" d="M321.74,734.34c1.58.38,3.07.86,4.68,1.11s3,.41,4.53.55c3.22.31,6.46.52,9.7.6s6.31.09,9.48-.06c1.61-.08,3.23-.19,4.84-.32a13.28,13.28,0,0,0,4.58-.72.93.93,0,0,0-.22-1.69c-1.47-.33-3.11.08-4.6.21s-3.07.25-4.6.34c-3.15.18-6.33.35-9.48.36s-6.15-.06-9.22-.22c-1.61-.08-3.23-.19-4.84-.28s-3.21,0-4.82-.05a.09.09,0,0,0,0,.17Z" transform="translate(-159.59 -60.36)"/><path class="cls-2" d="M726.67,644.92a5.37,5.37,0,0,1-2.09,2.49,8.9,8.9,0,0,1-2.44.6,25.15,25.15,0,0,1-5.93.61c-4.89-.06-9.68-.43-14.58,0-10.89.93-21.51,4-32.43,4.64A43.41,43.41,0,0,1,651.46,651a2.1,2.1,0,0,0-2.56,1.46,2.12,2.12,0,0,0,1.45,2.57c11,4.07,22.78,2.42,34,.35,5.59-1,11.19-2.21,16.84-2.88a72,72,0,0,1,8.68-.54,57,57,0,0,0,6.66-.24,14.87,14.87,0,0,0,6.66-1.94,10.54,10.54,0,0,0,2-2.26,9.5,9.5,0,0,0,1.63-2.51c.06-.12-.15-.21-.21-.09Z" transform="translate(-159.59 -60.36)"/><path class="cls-2" d="M486.76,648.55a4.69,4.69,0,0,1-1.6,2.1,5.44,5.44,0,0,1-2.5.56c-.74.12-1.47.42-2.22.54a21.53,21.53,0,0,1-2.66.23c-4.71.16-9.43,0-14.14-.09-9.86-.16-19.73-.15-29.59-.35-19.72-.41-39.43-1.06-59.12-2.27-11.08-.68-22.16-1.21-33.22-2-1.69-.13-1.65,2.44,0,2.6,10.15,1,20.31,2.1,30.49,2.75s20.35,1.19,30.54,1.6c20.35.82,40.78,1.39,61.15.74,2.81-.09,5.63-.24,8.45-.32,2.36-.06,4.74,0,7.09-.31a19.25,19.25,0,0,0,2.92-.54,5,5,0,0,0,2.18-1.27,9.23,9.23,0,0,0,3-3.71c.18-.48-.56-.66-.74-.21Z" transform="translate(-159.59 -60.36)"/><path class="cls-2" d="M282.86,511.2a9.6,9.6,0,0,0,1.29.63,6.08,6.08,0,0,0,1.75-.09c1.33-.11,2.64-.25,4-.4,2.65-.31,5.29-.62,7.92-1,5.28-.66,10.56-1.3,15.85-1.95,10.57-1.3,21.12-2.74,31.68-4.09s20.92-2.77,31.4-4c10.24-1.22,20.48-2.44,30.79-2.81a165.81,165.81,0,0,1,17.27.21c2.73.18,5.45.44,8.16.82,1.45.2,2.9.48,4.36.68a9.71,9.71,0,0,0,2.22.07,5.49,5.49,0,0,0,2.05-.8,1.28,1.28,0,0,0,.25-2,5.52,5.52,0,0,0-3.07-2,30.16,30.16,0,0,0-3.78-.65c-2.59-.37-5.19-.68-7.8-.9a149.87,149.87,0,0,0-15.57-.47,267.36,267.36,0,0,0-31.19,2.73c-21,2.87-42,6.26-63,9.39-5.92.89-11.83,1.84-17.75,2.75-3,.45-5.92.9-8.87,1.38-1.48.24-2.95.47-4.42.75a13.38,13.38,0,0,0-2.2.43,5.59,5.59,0,0,0-1.32,1.07.14.14,0,0,0,0,.22Z" transform="translate(-159.59 -60.36)"/><path class="cls-2" d="M633.15,496.42a3.55,3.55,0,0,0,.86.87c.52.3,1.1.13,1.66.18a18.53,18.53,0,0,0,3.94,0c2.64-.28,5.26-.74,7.9-1.06,5.07-.63,10.13-1.38,15.21-2,9.21-1.2,18.45-2.45,27.73-3q3.82-.24,7.67-.32c2.78-.05,5.61.18,8.38,0a2.52,2.52,0,0,0,0-5,56.85,56.85,0,0,0-7.5-.1c-2.3,0-4.59.13-6.89.27-4.42.26-8.82.7-13.22,1.22-10,1.2-20.09,2.48-30,4.3-2.86.53-5.73,1-8.59,1.47a17.23,17.23,0,0,0-4.31,1.07,15.35,15.35,0,0,0-2,.77,2.77,2.77,0,0,0-.88,1.34.09.09,0,0,0,0,.1Z" transform="translate(-159.59 -60.36)"/><path class="cls-2" d="M310.83,576.38c27.31-7.79,56.3-5.31,84.25-3.85,29.55,1.55,59.09,3.25,88.63,4.86,16.59.91,33.19,1.75,49.79,2.43,3.1.12,3.08-4.65,0-4.81-29.69-1.51-59.42-2.52-89.13-3.62-14.93-.56-29.87-1-44.81-1.6-14.2-.55-28.42-1.32-42.64-1.17-15.74.17-31.38,1.68-46.48,6.33a.74.74,0,0,0,.39,1.43Z" transform="translate(-159.59 -60.36)"/><path class="cls-2" d="M758.88,570.61c-3.23.31-6.4.91-9.59,1.53a90.7,90.7,0,0,1-9.87,1.33c-6.82.57-13.69.67-20.53,1.1l-43.07,2.68q-21.54,1.35-43.08,2.76c-13.88.89-27.73,1.2-41.63,1.17-15.53,0-31.11-1.21-46.61-2.16-1.91-.11-1.88,2.81,0,3,27.87,2.15,55.79,4.77,83.76,3q43.34-2.67,86.65-5.5c7.88-.51,15.75-1,23.6-1.9,7.08-.78,15-1.49,20.74-6.11a.53.53,0,0,0-.37-.9Z" transform="translate(-159.59 -60.36)"/><rect class="cls-3" x="175" y="306" width="65" height="65" transform="translate(-276 48.53) rotate(-23.16)"/><rect class="cls-3" x="234.93" y="238.65" width="45.36" height="45.36" transform="translate(-241.61 62.02) rotate(-23.16)"/><rect class="cls-3" x="172.51" y="241.32" width="29.88" height="29.88" transform="translate(-245.27 34.02) rotate(-23.16)"/><circle class="cls-3" cx="712.41" cy="523.64" r="40"/></svg>