<svg xmlns="http://www.w3.org/2000/svg" width="556.92" height="871.958" viewBox="0 0 556.92 871.958">
  <path id="Path_51" data-name="Path 51" d="M781,934.8V738.54c0-29.43,0-59-4.08-88.12a497.1,497.1,0,0,0-10.38-50.89c-.71-4.75-1.42-7.66-2.15-8.36l-.13-.72,2.47-6.59,8.84-14,.66.57-.46-.89,3.66-5.8c-2-.71-4,.53-5.57,2.09C744.38,509.63,677.28,461.67,618,439l-18-43c4-1,17.46,1.14,21.47.07,12.51-3.34,25.55-7,35-15.91,5.78-5.43,9.78-12.44,13.56-19.42,15.89-29.4,29.45-63.2,21.1-95.57-2.29-8.86-6.16-17.24-8.75-26-6.09-20.58-5-42.58-9.16-63.64-5.11-25.95-18.12-49.93-35-70.3A118.561,118.561,0,0,0,617.68,85.1C591.78,66,556.51,63.42,525.23,71A163.55,163.55,0,0,0,401.08,214.52c-1,10.18,4.49,27.68,14.53,29.62l.33.37c-7.81,1.11-15.53,4.93-19.53,11.69-4.25,7.15-2.87,17.75,4.22,22.1,3.37,2.07,8.2,3.3,8.84,7.21.28,1.67-.39,3.34-.9,4.95-3.32,10.35.78,23.78,11.09,27.19,6.92,2.29,14.93-.24,21.5,2.89,0,6.8,4.44,12.73,9,17.81a168.319,168.319,0,0,0,29.67,26.23c2.54,9.95-1.13,20.45-.08,25.82l-38.26,29c-4.52,1.29-10.64,3.1-18.11,5.47-13.13,2.87-28.72,6.64-32.35,8.17-15.51,6.5-32.7,13.68-48.7,22.32q-9.44,4.11-19.3,8.68l-3.38,1.57c-1.91,2.19-5.66,6.54-10.36,12.29-.42.38-.85.75-1.26,1.14a78.73,78.73,0,0,0-14.52,19.11c-14.73,20-30.05,44.2-30.87,59.68C261,588,242.35,648.6,224.18,787.8l4.94,12.05a213,213,0,0,0,1.18,23.4c3.72,34.48,18.33,69.32,45.56,90.41l.14.34,6.89,6.09L280.72,922c.91-.48,1.8-1,2.7-1.47h0l.24-.14c1.83-1,3.64-2,5.45-3.07l32.32,1.42C354.65,925.43,576,905.41,610,903l171,36h.1S781.07,937.53,781,934.8Z" transform="translate(-224.18 -67.042)" fill="#fff"/>
</svg>
