<svg xmlns="http://www.w3.org/2000/svg" width="290.437" height="258.646" viewBox="0 0 290.437 258.646">
  <g id="React__web_framework_-Logo.wine" data-name="React_(web_framework)-Logo.wine" transform="translate(-175.7 -78)">
    <path id="Path_100" data-name="Path 100" d="M466.137,207.353c0-19.24-24.095-37.474-61.036-48.781,8.525-37.651,4.736-67.607-11.958-77.2a25.955,25.955,0,0,0-13.261-3.315v13.2a13.709,13.709,0,0,1,6.749,1.539c8.051,4.618,11.544,22.2,8.821,44.815-.651,5.565-1.717,11.426-3.019,17.4a286.9,286.9,0,0,0-37.592-6.453,288.783,288.783,0,0,0-24.627-29.6c19.3-17.938,37.415-27.765,49.728-27.765V78c-16.28,0-37.592,11.6-59.141,31.731-21.549-20.01-42.861-31.495-59.141-31.495v13.2c12.254,0,30.429,9.768,49.728,27.587a279.613,279.613,0,0,0-24.45,29.541,276.453,276.453,0,0,0-37.651,6.512c-1.362-5.92-2.368-11.662-3.078-17.168-2.782-22.615.651-40.2,8.643-44.874a13.175,13.175,0,0,1,6.808-1.539V78.3a26.4,26.4,0,0,0-13.379,3.315c-16.635,9.59-20.365,39.487-11.781,77.02-36.823,11.366-60.8,29.541-60.8,48.722,0,19.24,24.095,37.474,61.036,48.781-8.525,37.651-4.736,67.607,11.958,77.2a26.024,26.024,0,0,0,13.32,3.315c16.28,0,37.592-11.6,59.141-31.731,21.549,20.01,42.861,31.495,59.141,31.495a26.4,26.4,0,0,0,13.379-3.315c16.635-9.59,20.365-39.487,11.781-77.02,36.7-11.307,60.68-29.541,60.68-48.722Zm-77.079-39.487c-2.19,7.637-4.914,15.51-7.992,23.384-2.427-4.736-4.973-9.472-7.755-14.208-2.723-4.736-5.624-9.354-8.525-13.853,8.406,1.243,16.517,2.782,24.272,4.677Zm-27.114,63.048c-4.618,7.992-9.354,15.57-14.267,22.615-8.821.77-17.76,1.184-26.759,1.184-8.939,0-17.879-.414-26.64-1.125q-7.37-10.567-14.327-22.5-6.749-11.633-12.314-23.562c3.67-7.933,7.814-15.866,12.254-23.621,4.618-7.992,9.354-15.57,14.267-22.615,8.821-.77,17.76-1.184,26.759-1.184,8.939,0,17.879.414,26.64,1.125q7.37,10.567,14.327,22.5,6.749,11.633,12.314,23.562c-3.73,7.933-7.814,15.866-12.254,23.621Zm19.122-7.7c3.2,7.933,5.92,15.866,8.17,23.562-7.755,1.894-15.925,3.493-24.391,4.736,2.9-4.558,5.8-9.235,8.525-14.031,2.723-4.736,5.269-9.531,7.7-14.267Zm-60.029,63.167a244.065,244.065,0,0,1-16.458-18.944c5.328.237,10.774.414,16.28.414,5.565,0,11.07-.118,16.458-.414A231.07,231.07,0,0,1,321.037,286.385Zm-44.045-34.869c-8.406-1.243-16.517-2.782-24.272-4.677,2.19-7.637,4.914-15.511,7.992-23.384,2.427,4.736,4.973,9.472,7.755,14.208S274.091,247.017,276.992,251.516Zm43.749-123.2A244.058,244.058,0,0,1,337.2,147.264c-5.328-.237-10.774-.414-16.28-.414-5.565,0-11.07.118-16.458.414A231.075,231.075,0,0,1,320.741,128.32Zm-43.808,34.869c-2.9,4.558-5.8,9.235-8.525,14.03-2.723,4.736-5.269,9.472-7.7,14.208-3.2-7.933-5.92-15.866-8.17-23.562,7.755-1.835,15.925-3.434,24.391-4.677Zm-53.576,74.119c-20.957-8.939-34.514-20.661-34.514-29.955S202.4,186.277,223.356,177.4c5.091-2.19,10.656-4.144,16.4-5.979a284.333,284.333,0,0,0,13.32,36.053,280.32,280.32,0,0,0-13.142,35.875c-5.861-1.835-11.426-3.848-16.576-6.038Zm31.85,84.6c-8.051-4.618-11.544-22.2-8.821-44.815.651-5.565,1.717-11.426,3.019-17.4A286.9,286.9,0,0,0,287,266.139a288.784,288.784,0,0,0,24.627,29.6C292.325,313.677,274.21,323.5,261.9,323.5a14.128,14.128,0,0,1-6.69-1.6Zm140.423-45.111c2.782,22.615-.651,40.2-8.643,44.874a13.175,13.175,0,0,1-6.808,1.539c-12.254,0-30.429-9.768-49.728-27.587A279.61,279.61,0,0,0,354.9,266.08a276.45,276.45,0,0,0,37.651-6.512A165.733,165.733,0,0,1,395.629,276.795Zm22.792-39.487c-5.091,2.19-10.656,4.144-16.4,5.979a284.328,284.328,0,0,0-13.32-36.053,280.324,280.324,0,0,0,13.143-35.875c5.861,1.835,11.426,3.848,16.635,6.038,20.957,8.939,34.514,20.661,34.514,29.955-.059,9.294-13.616,21.075-34.573,29.955Z" transform="translate(0)" fill="#fff"/>
    <circle id="Ellipse_4" data-name="Ellipse 4" cx="27.055" cy="27.055" r="27.055" transform="translate(293.805 180.298)" fill="#fff"/>
  </g>
</svg>
