<svg id="redux-seeklogo.com" xmlns="http://www.w3.org/2000/svg" width="256" height="243.034" viewBox="0 0 256 243.034">
  <path id="Path_98" data-name="Path 98" d="M177.381,169.733a18.3,18.3,0,0,0-1.955-36.488h-.651a18.227,18.227,0,0,0-17.592,18.9,18.714,18.714,0,0,0,5.212,12.054c-11.076,21.828-28.016,37.791-53.426,51.148-17.266,9.122-35.183,12.38-53.1,10.1-14.66-1.955-26.062-8.471-33.229-19.222-10.425-15.963-11.4-33.229-2.606-50.5a76.684,76.684,0,0,1,22.152-26.063c-1.3-4.235-3.258-11.4-4.235-16.614C-9.286,147.254-4.4,193.515,9.935,215.342c10.75,16.289,32.577,26.389,56.684,26.389a80.079,80.079,0,0,0,19.546-2.281C127.864,231.306,159.464,206.546,177.381,169.733Zm57.336-40.4c-24.759-28.995-61.245-44.958-102.944-44.958h-5.212A17.9,17.9,0,0,0,110.6,74.6h-.652a18.25,18.25,0,0,0,.652,36.488h.651a18.352,18.352,0,0,0,15.963-11.077h5.864a124.157,124.157,0,0,1,69.389,21.176c16.289,10.751,28.017,24.76,34.532,41.7,5.538,13.683,5.212,27.04-.652,38.443-9.121,17.266-24.432,26.714-44.63,26.714a83.321,83.321,0,0,1-31.926-6.842c-3.583,3.258-10.1,8.471-14.659,11.729,14.008,6.515,28.342,10.1,42.024,10.1,31.274,0,54.4-17.267,63.2-34.533C259.8,189.6,259.149,157.027,234.717,129.336ZM69.225,175.271a18.3,18.3,0,0,0,18.243,17.592h.652a18.249,18.249,0,0,0-.652-36.487h-.651a5.556,5.556,0,0,0-2.28.325C71.18,134.548,65.642,110.44,67.6,84.378c1.3-19.547,7.819-36.488,19.221-50.5,9.447-12.054,27.69-17.918,40.069-18.244,34.532-.652,49.192,42.352,50.169,59.618,4.235.977,11.4,3.258,16.289,4.887C189.434,27.366,156.857,0,125.583,0,96.264,0,69.225,21.176,58.475,52.451c-14.985,41.7-5.212,81.771,13.031,113.372A14.636,14.636,0,0,0,69.225,175.271Z" fill="#fff"/>
</svg>
